<?xml version="1.0" encoding="utf-8"?>
<!-- Generator: Adobe Illustrator 22.0.0, SVG Export Plug-In . SVG Version: 6.00 Build 0)  -->
<svg version="1.1" id="Layer_1" xmlns="http://www.w3.org/2000/svg" xmlns:xlink="http://www.w3.org/1999/xlink" x="0px" y="0px"
	 width="412.5px" height="141.5px" viewBox="0 0 412.5 141.5" style="enable-background:new 0 0 412.5 141.5;" xml:space="preserve"
	>
<style type="text/css">
	.st0{fill:#FFFFFF;}
	.st1{fill:#F9BA2E;}
</style>
<g>
	<rect x="9" y="21.5" class="st0" width="101" height="100"/>
	<circle class="st1" cx="59.7" cy="71.2" r="22.3"/>
	<g>
		<path d="M101.6,24.1c3.2,0,5.8,2.6,5.8,5.8v83.2c0,3.2-2.6,5.8-5.8,5.8H18.4c-3.2,0-5.8-2.6-5.8-5.8V29.9c0-3.2,2.6-5.8,5.8-5.8
			L101.6,24.1 M101.6,14.4H18.4c-8.6,0-15.5,7-15.5,15.5v83.2c0,8.6,7,15.5,15.5,15.5h83.2c8.6,0,15.5-7,15.5-15.5V29.9
			C117.1,21.3,110.2,14.4,101.6,14.4L101.6,14.4z"/>
		<path d="M60,50.7c11.5,0,20.8,9.3,20.8,20.8S71.5,92.3,60,92.3S39.2,83,39.2,71.5C39.2,60,48.5,50.7,60,50.7 M60,46.2
			c-6.7,0-13.1,2.6-17.9,7.4s-7.4,11.1-7.4,17.9c0,6.7,2.6,13.1,7.4,17.9s11.1,7.4,17.9,7.4s13.1-2.6,17.9-7.4s7.4-11.1,7.4-17.9
			s-2.6-13.1-7.4-17.9C73.1,48.9,66.7,46.2,60,46.2L60,46.2z"/>
	</g>
</g>
<g>
	<path d="M155.5,78.8c0-1.3-0.5-2.3-1.4-3.1c-0.9-0.7-2.6-1.5-4.9-2.3s-4.2-1.5-5.7-2.3c-4.8-2.4-7.2-5.6-7.2-9.7
		c0-2.1,0.6-3.9,1.8-5.4c1.2-1.6,2.9-2.8,5.1-3.7c2.2-0.9,4.7-1.3,7.4-1.3s5.1,0.5,7.2,1.4c2.1,1,3.8,2.3,4.9,4.1
		c1.2,1.8,1.8,3.8,1.8,6h-8.9c0-1.5-0.5-2.7-1.4-3.5s-2.2-1.3-3.8-1.3s-2.9,0.4-3.8,1.1c-0.9,0.7-1.4,1.6-1.4,2.7
		c0,1,0.5,1.8,1.5,2.6s2.8,1.6,5.4,2.4c2.6,0.8,4.7,1.7,6.3,2.7c4,2.3,6,5.5,6,9.6c0,3.2-1.2,5.8-3.7,7.7c-2.4,1.9-5.8,2.8-10.1,2.8
		c-3,0-5.7-0.5-8.2-1.6s-4.3-2.6-5.5-4.4c-1.2-1.9-1.8-4-1.8-6.5h9c0,2,0.5,3.5,1.5,4.4s2.7,1.4,5,1.4c1.5,0,2.6-0.3,3.5-1
		C155.1,80.8,155.5,79.9,155.5,78.8z"/>
	<path d="M182.3,89.2c-4.2,0-7.7-1.3-10.3-3.8s-3.9-5.8-3.9-9.9v-0.7c0-2.8,0.5-5.3,1.6-7.5c1-2.2,2.6-3.8,4.6-5s4.4-1.8,7.1-1.8
		c3.9,0,6.9,1.2,9.2,3.6c2.2,2.4,3.4,5.8,3.4,10.1v3.3h-17.1c0.3,1.5,1,2.8,2,3.6s2.4,1.3,4,1.3c2.7,0,4.8-1,6.4-2.9l3.9,4.6
		c-1.1,1.5-2.6,2.7-4.6,3.5C186.7,88.7,184.6,89.2,182.3,89.2z M181.3,67.2c-2.5,0-4,1.7-4.5,5h8.7v-0.7c0-1.4-0.3-2.4-1-3.2
		S182.7,67.2,181.3,67.2z"/>
	<path d="M205.5,61.1l0.3,3.2c1.9-2.5,4.5-3.8,7.9-3.8c2.9,0,5,0.9,6.4,2.6c1.4,1.7,2.2,4.3,2.2,7.8v17.8h-8.6V71.2
		c0-1.4-0.3-2.4-0.8-3.1c-0.6-0.7-1.6-1-3.1-1c-1.7,0-2.9,0.7-3.8,2v19.5h-8.6V61.1H205.5L205.5,61.1z"/>
	<path d="M241.8,80.9c0-0.7-0.4-1.3-1.1-1.8c-0.8-0.4-2.2-0.9-4.4-1.4c-2.1-0.5-3.9-1.1-5.3-1.9s-2.5-1.7-3.2-2.8
		c-0.7-1.1-1.1-2.4-1.1-3.8c0-2.5,1-4.6,3.1-6.3c2.1-1.6,4.8-2.5,8.2-2.5c3.6,0,6.6,0.8,8.8,2.5c2.2,1.6,3.3,3.8,3.3,6.5h-8.6
		c0-2.2-1.2-3.3-3.5-3.3c-0.9,0-1.7,0.3-2.3,0.8s-0.9,1.1-0.9,1.9s0.4,1.4,1.1,1.9c0.7,0.5,1.9,0.9,3.6,1.2s3.1,0.7,4.3,1.1
		c4.1,1.4,6.2,4,6.2,7.7c0,2.5-1.1,4.6-3.4,6.1c-2.2,1.6-5.1,2.4-8.7,2.4c-2.4,0-4.5-0.4-6.3-1.3c-1.9-0.8-3.3-2-4.3-3.5
		s-1.6-3-1.6-4.6h8c0,1.3,0.5,2.2,1.3,2.8c0.8,0.6,1.9,0.9,3.1,0.9c1.2,0,2.1-0.2,2.6-0.7C241.5,82.3,241.8,81.7,241.8,80.9z"/>
	<path d="M253.3,74.6c0-2.8,0.5-5.2,1.6-7.4c1.1-2.2,2.6-3.8,4.6-5s4.4-1.7,7.1-1.7c4.1,0,7.4,1.3,9.8,3.8c2.4,2.6,3.6,6,3.6,10.4
		V75c0,4.3-1.2,7.7-3.6,10.2s-5.6,3.8-9.7,3.8c-3.9,0-7.1-1.2-9.5-3.5c-2.4-2.4-3.7-5.5-3.9-9.6L253.3,74.6z M261.9,75.1
		c0,2.6,0.4,4.4,1.2,5.6c0.8,1.2,2,1.8,3.5,1.8c3.1,0,4.6-2.4,4.7-7.1v-0.9c0-4.9-1.6-7.4-4.7-7.4c-2.9,0-4.4,2.1-4.7,6.4V75.1z"/>
	<path d="M300.7,68.8l-2.8-0.2c-2.7,0-4.4,0.9-5.2,2.6v17.5H284V61.1h8.1l0.3,3.5c1.4-2.7,3.5-4.1,6-4.1c0.9,0,1.7,0.1,2.4,0.3
		L300.7,68.8z"/>
	<path d="M318.8,88.7c-0.3-0.6-0.6-1.4-0.8-2.5c-1.6,2-3.8,3-6.6,3c-2.6,0-4.8-0.8-6.6-2.4s-2.7-3.6-2.7-5.9c0-3,1.1-5.3,3.3-6.8
		c2.2-1.5,5.4-2.3,9.6-2.3h2.7v-1.5c0-2.5-1.1-3.8-3.3-3.8c-2,0-3.1,1-3.1,3h-8.6c0-2.7,1.1-4.8,3.4-6.5s5.2-2.5,8.7-2.5
		s6.3,0.9,8.3,2.6s3.1,4.1,3.1,7.1v12.2c0,2.5,0.4,4.5,1.2,5.8v0.4L318.8,88.7L318.8,88.7z M313.4,83c1.1,0,2-0.2,2.7-0.7
		s1.2-1,1.5-1.6v-4.4h-2.5c-3,0-4.5,1.3-4.5,4c0,0.8,0.3,1.4,0.8,1.9C312,82.8,312.6,83,313.4,83z"/>
	<path d="M356.9,75.1c0,4.5-0.9,8-2.8,10.4s-4.5,3.6-7.9,3.6c-2.8,0-5.1-1.1-6.8-3.3l-0.4,2.8h-7.7V49.5h8.6v13.8
		c1.6-1.8,3.7-2.7,6.2-2.7c3.4,0,6.1,1.2,8,3.7c1.9,2.5,2.8,5.9,2.8,10.4L356.9,75.1L356.9,75.1z M348.3,74.5c0-2.6-0.4-4.5-1.1-5.7
		c-0.7-1.1-1.8-1.7-3.3-1.7c-1.9,0-3.3,0.7-4,2.2v10.9c0.7,1.5,2.1,2.2,4.1,2.2s3.3-1,3.9-3C348.1,78.6,348.3,76.9,348.3,74.5z"/>
	<path d="M370,88.7h-8.6V49.5h8.6V88.7z"/>
	<path d="M388.9,89.2c-4.2,0-7.7-1.3-10.3-3.8c-2.6-2.5-3.9-5.8-3.9-9.9v-0.7c0-2.8,0.5-5.3,1.6-7.5c1-2.2,2.6-3.8,4.6-5
		s4.4-1.8,7.1-1.8c3.9,0,6.9,1.2,9.2,3.6c2.2,2.4,3.4,5.8,3.4,10.1v3.3h-17.1c0.3,1.5,1,2.8,2,3.6s2.4,1.3,4,1.3
		c2.7,0,4.8-1,6.4-2.9l3.9,4.6c-1.1,1.5-2.6,2.7-4.6,3.5C393.3,88.7,391.2,89.2,388.9,89.2z M387.9,67.2c-2.5,0-4,1.7-4.5,5h8.7
		v-0.7c0-1.4-0.3-2.4-1-3.2C390.3,67.6,389.3,67.2,387.9,67.2z"/>
</g>
</svg>
