<?xml version="1.0" encoding="utf-8"?>
<!-- Generator: Adobe Illustrator 16.0.0, SVG Export Plug-In . SVG Version: 6.00 Build 0)  -->
<!DOCTYPE svg PUBLIC "-//W3C//DTD SVG 1.1//EN" "http://www.w3.org/Graphics/SVG/1.1/DTD/svg11.dtd">
<svg version="1.1" id="Layer_1" xmlns="http://www.w3.org/2000/svg" xmlns:xlink="http://www.w3.org/1999/xlink" x="0px" y="0px"
	 width="120px" height="120px" viewBox="0 0 120 120" enable-background="new 0 0 120 120" xml:space="preserve">
<g>
	<rect x="9" y="10" fill="#FFFFFF" width="101" height="100"/>
	<circle fill="#F9BA2E" cx="59.675" cy="59.672" r="22.329"/>
	<g>
		<path d="M101.594,12.581c3.206,0,5.83,2.624,5.83,5.831v83.176c0,3.207-2.624,5.831-5.83,5.831H18.407
			c-3.207,0-5.831-2.624-5.831-5.831V18.412c0-3.207,2.624-5.831,5.831-5.831H101.594 M101.594,2.863H18.407
			c-8.574,0-15.549,6.975-15.549,15.548v83.176c0,8.574,6.975,15.549,15.549,15.549h83.187c8.573,0,15.549-6.975,15.549-15.549
			V18.412C117.143,9.838,110.167,2.863,101.594,2.863L101.594,2.863z"/>
		<path d="M60,39.206c11.486,0,20.796,9.309,20.796,20.794c0,11.484-9.31,20.793-20.796,20.793
			c-11.485,0-20.796-9.309-20.796-20.793C39.204,48.515,48.515,39.206,60,39.206 M60,34.736c-6.749,0-13.094,2.628-17.866,7.4
			s-7.4,11.114-7.4,17.864c0,6.748,2.628,13.092,7.4,17.863c4.772,4.771,11.117,7.4,17.866,7.4s13.094-2.629,17.866-7.399
			c4.772-4.771,7.399-11.115,7.399-17.863c0-6.75-2.627-13.093-7.399-17.864C73.094,37.364,66.749,34.736,60,34.736L60,34.736z"/>
	</g>
</g>
</svg>
