<?xml version="1.0" encoding="utf-8"?>
<!-- Generator: Adobe Illustrator 16.0.0, SVG Export Plug-In . SVG Version: 6.00 Build 0)  -->
<!DOCTYPE svg PUBLIC "-//W3C//DTD SVG 1.1//EN" "http://www.w3.org/Graphics/SVG/1.1/DTD/svg11.dtd">
<svg version="1.1" id="Layer_1" xmlns="http://www.w3.org/2000/svg" xmlns:xlink="http://www.w3.org/1999/xlink" x="0px" y="0px"
	 width="138px" height="163.667px" viewBox="0 0 138 163.667" enable-background="new 0 0 138 163.667" xml:space="preserve">
<g>
	<rect x="19" y="13.667" fill="#FFFFFF" width="101" height="100"/>
	<circle fill="#F9BA2E" cx="69.675" cy="63.338" r="22.329"/>
	<g>
		<path d="M111.594,16.248c3.206,0,5.83,2.624,5.83,5.831v83.176c0,3.207-2.624,5.831-5.83,5.831H28.407
			c-3.207,0-5.831-2.624-5.831-5.831V22.078c0-3.207,2.624-5.831,5.831-5.831H111.594 M111.594,6.53H28.407
			c-8.573,0-15.549,6.975-15.549,15.548v83.176c0,8.574,6.976,15.549,15.549,15.549h83.187c8.573,0,15.548-6.975,15.548-15.549
			V22.078C127.142,13.504,120.167,6.53,111.594,6.53L111.594,6.53z"/>
		<path d="M70,42.873c11.486,0,20.796,9.309,20.796,20.794c0,11.484-9.31,20.793-20.796,20.793
			c-11.485,0-20.797-9.309-20.797-20.793C49.203,52.181,58.515,42.873,70,42.873 M70,38.403c-6.749,0-13.094,2.628-17.866,7.4
			c-4.772,4.771-7.4,11.114-7.4,17.864c0,6.748,2.628,13.092,7.4,17.863S63.251,88.929,70,88.929s13.094-2.628,17.866-7.399
			s7.4-11.115,7.4-17.863c0-6.75-2.628-13.093-7.4-17.864C83.094,41.031,76.749,38.403,70,38.403L70,38.403z"/>
	</g>
</g>
<g>
	<path d="M22.316,139.961c0-0.564-0.199-1.004-0.599-1.318c-0.399-0.315-1.101-0.642-2.104-0.979
		c-1.004-0.337-1.824-0.663-2.462-0.978c-2.073-1.019-3.109-2.417-3.109-4.197c0-0.887,0.259-1.668,0.774-2.346
		c0.517-0.678,1.247-1.205,2.192-1.582c0.945-0.378,2.007-0.566,3.187-0.566c1.149,0,2.181,0.205,3.093,0.615
		s1.621,0.994,2.126,1.753c0.506,0.758,0.759,1.624,0.759,2.599h-3.846c0-0.652-0.2-1.157-0.6-1.517
		c-0.398-0.358-0.939-0.538-1.62-0.538c-0.688,0-1.232,0.151-1.632,0.456c-0.399,0.304-0.599,0.69-0.599,1.159
		c0,0.41,0.22,0.781,0.659,1.115c0.439,0.333,1.212,0.678,2.318,1.032c1.105,0.355,2.015,0.738,2.725,1.148
		c1.729,0.996,2.594,2.37,2.594,4.12c0,1.399-0.527,2.498-1.583,3.297c-1.055,0.798-2.501,1.197-4.34,1.197
		c-1.297,0-2.471-0.232-3.521-0.697c-1.051-0.466-1.842-1.103-2.373-1.912s-0.797-1.741-0.797-2.797h3.868
		c0,0.857,0.221,1.489,0.664,1.896c0.443,0.407,1.163,0.61,2.159,0.61c0.638,0,1.141-0.138,1.511-0.412
		C22.132,140.845,22.316,140.459,22.316,139.961z"/>
	<path d="M33.732,144.433c-1.823,0-3.3-0.544-4.428-1.632s-1.692-2.503-1.692-4.246v-0.308c0-1.216,0.226-2.289,0.676-3.22
		c0.451-0.931,1.108-1.65,1.973-2.159s1.89-0.764,3.076-0.764c1.67,0,2.989,0.519,3.956,1.555c0.967,1.037,1.45,2.481,1.45,4.335
		v1.439h-7.361c0.132,0.666,0.421,1.19,0.867,1.571c0.447,0.381,1.025,0.571,1.736,0.571c1.172,0,2.088-0.41,2.747-1.23l1.692,1.999
		c-0.462,0.638-1.115,1.145-1.962,1.522C35.617,144.245,34.707,144.433,33.732,144.433z M33.315,134.961
		c-1.084,0-1.729,0.719-1.934,2.154h3.735v-0.286c0.015-0.593-0.136-1.053-0.45-1.379C34.352,135.125,33.901,134.961,33.315,134.961
		z"/>
	<path d="M43.633,132.325l0.12,1.396c0.82-1.077,1.952-1.615,3.396-1.615c1.237,0,2.163,0.37,2.774,1.109
		c0.611,0.74,0.929,1.854,0.95,3.341v7.658h-3.714v-7.505c0-0.601-0.121-1.042-0.362-1.323c-0.242-0.282-0.682-0.424-1.318-0.424
		c-0.726,0-1.264,0.286-1.615,0.857v8.395H40.16v-11.889H43.633z"/>
	<path d="M59.147,140.874c0-0.315-0.165-0.568-0.494-0.759c-0.33-0.19-0.956-0.388-1.879-0.593s-1.685-0.475-2.285-0.808
		c-0.602-0.334-1.059-0.738-1.374-1.215c-0.314-0.476-0.473-1.021-0.473-1.637c0-1.092,0.451-1.99,1.352-2.697
		c0.901-0.707,2.08-1.061,3.538-1.061c1.567,0,2.827,0.355,3.78,1.065c0.952,0.711,1.428,1.645,1.428,2.803h-3.714
		c0-0.952-0.502-1.429-1.505-1.429c-0.389,0-0.714,0.108-0.978,0.324s-0.396,0.485-0.396,0.808c0,0.329,0.16,0.597,0.483,0.802
		c0.322,0.205,0.836,0.374,1.543,0.506s1.328,0.289,1.862,0.472c1.788,0.616,2.682,1.719,2.682,3.308
		c0,1.084-0.482,1.967-1.445,2.648c-0.963,0.681-2.21,1.021-3.741,1.021c-1.019,0-1.927-0.184-2.725-0.55
		c-0.799-0.366-1.421-0.864-1.868-1.494c-0.446-0.63-0.67-1.293-0.67-1.988h3.461c0.015,0.549,0.197,0.95,0.55,1.203
		c0.352,0.253,0.802,0.379,1.351,0.379c0.506,0,0.885-0.103,1.138-0.308S59.147,141.203,59.147,140.874z"/>
	<path d="M63.981,138.16c0-1.188,0.23-2.243,0.692-3.17c0.461-0.927,1.124-1.64,1.988-2.138s1.879-0.747,3.044-0.747
		c1.78,0,3.183,0.552,4.208,1.653c1.025,1.103,1.538,2.603,1.538,4.5v0.132c0,1.854-0.515,3.323-1.543,4.411
		c-1.029,1.088-2.423,1.632-4.181,1.632c-1.692,0-3.052-0.507-4.077-1.521s-1.578-2.39-1.659-4.126L63.981,138.16z M67.685,138.39
		c0,1.099,0.172,1.904,0.517,2.417c0.344,0.513,0.853,0.77,1.527,0.77c1.318,0,1.992-1.015,2.021-3.044v-0.373
		c0-2.132-0.682-3.198-2.044-3.198c-1.238,0-1.908,0.92-2.011,2.758L67.685,138.39z"/>
	<path d="M84.275,135.676l-1.22-0.088c-1.164,0-1.911,0.366-2.241,1.099v7.526h-3.703v-11.889h3.473l0.121,1.527
		c0.622-1.165,1.49-1.747,2.604-1.747c0.396,0,0.74,0.044,1.033,0.132L84.275,135.676z"/>
	<path d="M91.979,144.213c-0.132-0.242-0.249-0.597-0.352-1.065c-0.682,0.856-1.634,1.285-2.856,1.285
		c-1.121,0-2.073-0.339-2.857-1.017c-0.784-0.677-1.176-1.528-1.176-2.555c0-1.289,0.477-2.263,1.429-2.922
		c0.952-0.66,2.337-0.989,4.153-0.989h1.143v-0.63c0-1.097-0.473-1.645-1.417-1.645c-0.879,0-1.318,0.435-1.318,1.303h-3.703
		c0-1.148,0.489-2.081,1.467-2.799c0.978-0.717,2.225-1.075,3.741-1.075s2.714,0.37,3.593,1.109c0.879,0.74,1.33,1.755,1.352,3.044
		v5.263c0.015,1.092,0.183,1.927,0.506,2.506v0.187H91.979z M89.66,141.796c0.461,0,0.844-0.1,1.148-0.297
		c0.304-0.198,0.521-0.421,0.653-0.67v-1.901h-1.077c-1.289,0-1.934,0.579-1.934,1.736c0,0.337,0.113,0.609,0.341,0.818
		C89.019,141.692,89.309,141.796,89.66,141.796z"/>
	<path d="M108.262,138.368c0,1.949-0.402,3.447-1.208,4.494c-0.807,1.048-1.941,1.571-3.406,1.571c-1.209,0-2.184-0.479-2.923-1.439
		l-0.154,1.22h-3.318v-16.877h3.703v5.944c0.688-0.784,1.578-1.176,2.67-1.176c1.479,0,2.622,0.531,3.429,1.593
		c0.806,1.063,1.208,2.557,1.208,4.483V138.368z M104.548,138.132c0-1.141-0.152-1.955-0.456-2.441
		c-0.304-0.485-0.771-0.729-1.4-0.729c-0.835,0-1.414,0.318-1.736,0.955v4.717c0.314,0.629,0.901,0.943,1.758,0.943
		c0.872,0,1.425-0.425,1.659-1.272C104.489,139.887,104.548,139.163,104.548,138.132z"/>
	<path d="M113.8,144.213h-3.714v-16.877h3.714V144.213z"/>
	<path d="M121.831,144.433c-1.823,0-3.3-0.544-4.428-1.632s-1.692-2.503-1.692-4.246v-0.308c0-1.216,0.226-2.289,0.676-3.22
		c0.451-0.931,1.108-1.65,1.973-2.159s1.89-0.764,3.076-0.764c1.67,0,2.989,0.519,3.956,1.555c0.967,1.037,1.45,2.481,1.45,4.335
		v1.439h-7.361c0.132,0.666,0.421,1.19,0.867,1.571c0.447,0.381,1.025,0.571,1.736,0.571c1.172,0,2.088-0.41,2.747-1.23l1.692,1.999
		c-0.462,0.638-1.115,1.145-1.962,1.522C123.716,144.245,122.806,144.433,121.831,144.433z M121.414,134.961
		c-1.084,0-1.729,0.719-1.934,2.154h3.735v-0.286c0.015-0.593-0.136-1.053-0.45-1.379C122.45,135.125,122,134.961,121.414,134.961z"
		/>
</g>
<g>
</g>
<g>
</g>
<g>
</g>
<g>
</g>
<g>
</g>
<g>
</g>
<g>
</g>
<g>
</g>
<g>
</g>
<g>
</g>
<g>
</g>
<g>
</g>
<g>
</g>
<g>
</g>
<g>
</g>
</svg>
