<?xml version="1.0" encoding="utf-8"?>
<!-- Generator: Adobe Illustrator 16.0.0, SVG Export Plug-In . SVG Version: 6.00 Build 0)  -->
<!DOCTYPE svg PUBLIC "-//W3C//DTD SVG 1.1//EN" "http://www.w3.org/Graphics/SVG/1.1/DTD/svg11.dtd">
<svg version="1.1" id="Layer_1" xmlns="http://www.w3.org/2000/svg" xmlns:xlink="http://www.w3.org/1999/xlink" x="0px" y="0px"
	 width="412.5px" height="141.5px" viewBox="0 0 412.5 141.5" enable-background="new 0 0 412.5 141.5" xml:space="preserve">
<g>
	<rect x="9" y="21.5" fill="#FFFFFF" width="101" height="100"/>
	<circle fill="#F9BA2E" cx="59.675" cy="71.172" r="22.329"/>
	<g>
		<path d="M101.594,24.081c3.206,0,5.83,2.624,5.83,5.831v83.176c0,3.207-2.624,5.831-5.83,5.831H18.407
			c-3.207,0-5.831-2.624-5.831-5.831V29.912c0-3.207,2.624-5.831,5.831-5.831H101.594 M101.594,14.363H18.407
			c-8.574,0-15.549,6.975-15.549,15.548v83.176c0,8.574,6.975,15.549,15.549,15.549h83.187c8.573,0,15.548-6.975,15.548-15.549
			V29.912C117.142,21.338,110.167,14.363,101.594,14.363L101.594,14.363z"/>
		<path d="M60,50.706c11.486,0,20.796,9.309,20.796,20.794c0,11.484-9.31,20.793-20.796,20.793
			c-11.485,0-20.796-9.309-20.796-20.793C39.204,60.015,48.515,50.706,60,50.706 M60,46.236c-6.749,0-13.094,2.628-17.866,7.4
			s-7.4,11.114-7.4,17.864c0,6.748,2.628,13.092,7.4,17.863c4.772,4.771,11.117,7.4,17.866,7.4s13.094-2.629,17.866-7.399
			c4.772-4.771,7.4-11.115,7.4-17.863c0-6.75-2.628-13.093-7.4-17.864C73.094,48.864,66.749,46.236,60,46.236L60,46.236z"/>
	</g>
</g>
<g>
	<path fill="#F9BA2E" d="M155.529,78.782c0-1.309-0.463-2.329-1.39-3.061c-0.927-0.731-2.555-1.488-4.885-2.271
		c-2.33-0.782-4.235-1.539-5.714-2.27c-4.813-2.363-7.219-5.611-7.219-9.744c0-2.058,0.6-3.873,1.798-5.446
		c1.199-1.572,2.896-2.797,5.089-3.673c2.194-0.876,4.66-1.313,7.397-1.313c2.67,0,5.063,0.476,7.181,1.429
		c2.117,0.952,3.763,2.308,4.936,4.068c1.173,1.76,1.76,3.771,1.76,6.032h-8.928c0-1.513-0.463-2.687-1.39-3.52
		c-0.927-0.833-2.181-1.25-3.763-1.25c-1.599,0-2.861,0.353-3.788,1.059c-0.927,0.706-1.391,1.603-1.391,2.691
		c0,0.952,0.51,1.815,1.531,2.589s2.814,1.573,5.382,2.397c2.567,0.825,4.676,1.714,6.326,2.666c4.013,2.312,6.02,5.5,6.02,9.565
		c0,3.248-1.225,5.799-3.673,7.652s-5.808,2.78-10.076,2.78c-3.01,0-5.736-0.539-8.176-1.619c-2.44-1.08-4.277-2.56-5.51-4.438
		c-1.233-1.879-1.85-4.043-1.85-6.492h8.979c0,1.989,0.514,3.456,1.543,4.4c1.029,0.943,2.7,1.416,5.013,1.416
		c1.479,0,2.648-0.319,3.507-0.957C155.1,80.836,155.529,79.939,155.529,78.782z"/>
	<path fill="#F9BA2E" d="M182.294,89.164c-4.234,0-7.662-1.263-10.28-3.788c-2.619-2.524-3.928-5.812-3.928-9.858v-0.715
		c0-2.822,0.523-5.313,1.569-7.473c1.045-2.159,2.572-3.83,4.579-5.013c2.006-1.182,4.387-1.772,7.143-1.772
		c3.877,0,6.938,1.203,9.184,3.609c2.244,2.406,3.367,5.761,3.367,10.063v3.341h-17.092c0.307,1.548,0.979,2.764,2.016,3.648
		c1.037,0.884,2.381,1.326,4.029,1.326c2.721,0,4.848-0.952,6.379-2.857l3.928,4.643c-1.072,1.479-2.59,2.658-4.553,3.533
		C186.669,88.727,184.556,89.164,182.294,89.164z M181.325,67.176c-2.518,0-4.014,1.667-4.49,5h8.674v-0.663
		c0.033-1.377-0.316-2.444-1.047-3.201S182.685,67.176,181.325,67.176z"/>
	<path fill="#F9BA2E" d="M205.538,61.054l0.28,3.24c1.904-2.5,4.532-3.75,7.882-3.75c2.874,0,5.021,0.858,6.441,2.576
		s2.155,4.303,2.206,7.755v17.779h-8.621V71.233c0-1.395-0.281-2.419-0.842-3.074c-0.562-0.654-1.582-0.982-3.062-0.982
		c-1.684,0-2.934,0.663-3.75,1.99v19.488h-8.596v-27.6H205.538z"/>
	<path fill="#F9BA2E" d="M241.817,80.899c0-0.73-0.383-1.317-1.148-1.76c-0.765-0.442-2.219-0.901-4.361-1.378
		c-2.143-0.476-3.912-1.101-5.306-1.874c-1.395-0.774-2.458-1.714-3.188-2.819c-0.731-1.105-1.098-2.372-1.098-3.8
		c0-2.533,1.046-4.621,3.138-6.262c2.092-1.642,4.83-2.462,8.214-2.462c3.639,0,6.564,0.825,8.775,2.475
		c2.21,1.649,3.315,3.817,3.315,6.504h-8.622c0-2.21-1.164-3.315-3.494-3.315c-0.901,0-1.658,0.251-2.271,0.752
		c-0.612,0.502-0.918,1.127-0.918,1.875c0,0.766,0.374,1.387,1.122,1.862c0.748,0.477,1.942,0.867,3.584,1.173
		c1.641,0.306,3.082,0.672,4.324,1.097c4.148,1.428,6.224,3.988,6.224,7.678c0,2.517-1.118,4.566-3.354,6.147
		c-2.236,1.582-5.132,2.372-8.686,2.372c-2.364,0-4.473-0.425-6.326-1.275c-1.854-0.85-3.299-2.006-4.336-3.469
		c-1.038-1.462-1.557-3.001-1.557-4.617h8.035c0.034,1.275,0.459,2.207,1.275,2.793c0.816,0.587,1.862,0.88,3.138,0.88
		c1.174,0,2.054-0.237,2.641-0.714C241.523,82.286,241.817,81.665,241.817,80.899z"/>
	<path fill="#F9BA2E" d="M253.302,74.599c0-2.755,0.536-5.207,1.607-7.358s2.61-3.805,4.617-4.962
		c2.006-1.156,4.361-1.734,7.065-1.734c4.133,0,7.389,1.279,9.77,3.839s3.571,6.042,3.571,10.446v0.306
		c0,4.303-1.194,7.717-3.584,10.241c-2.389,2.525-5.624,3.788-9.706,3.788c-3.928,0-7.083-1.177-9.463-3.532
		c-2.382-2.355-3.665-5.549-3.853-9.579L253.302,74.599z M261.898,75.135c0,2.551,0.399,4.422,1.199,5.612
		c0.799,1.19,1.98,1.785,3.545,1.785c3.062,0,4.626-2.355,4.694-7.065v-0.868c0-4.948-1.582-7.422-4.745-7.422
		c-2.874,0-4.43,2.135-4.668,6.403L261.898,75.135z"/>
	<path fill="#F9BA2E" d="M300.678,68.834l-2.831-0.204c-2.704,0-4.438,0.851-5.204,2.551v17.473h-8.596v-27.6h8.061l0.28,3.546
		c1.445-2.704,3.461-4.056,6.046-4.056c0.918,0,1.717,0.102,2.397,0.306L300.678,68.834z"/>
	<path fill="#F9BA2E" d="M318.82,88.654c-0.306-0.562-0.578-1.386-0.816-2.475c-1.581,1.99-3.792,2.984-6.632,2.984
		c-2.603,0-4.813-0.786-6.633-2.359c-1.819-1.572-2.729-3.55-2.729-5.931c0-2.993,1.105-5.255,3.316-6.785s5.425-2.296,9.643-2.296
		h2.652v-1.46c0-2.546-1.097-3.819-3.29-3.819c-2.041,0-3.062,1.009-3.062,3.025h-8.596c0-2.667,1.135-4.833,3.405-6.497
		c2.27-1.664,5.165-2.497,8.686-2.497c3.52,0,6.301,0.858,8.341,2.576c2.041,1.718,3.087,4.073,3.138,7.066v12.217
		c0.034,2.534,0.425,4.474,1.174,5.816v0.434H318.82z M313.438,83.042c1.071,0,1.959-0.229,2.665-0.688s1.212-0.978,1.518-1.556
		v-4.413h-2.499c-2.994,0-4.49,1.344-4.49,4.03c0,0.782,0.264,1.416,0.791,1.9S312.622,83.042,313.438,83.042z"/>
	<path fill="#F9BA2E" d="M356.886,75.084c0,4.523-0.936,8.001-2.807,10.433c-1.87,2.433-4.506,3.647-7.907,3.647
		c-2.806,0-5.067-1.113-6.785-3.341l-0.357,2.831h-7.703v-39.18h8.596v13.8c1.599-1.819,3.665-2.729,6.199-2.729
		c3.435,0,6.088,1.233,7.958,3.698c1.871,2.467,2.807,5.936,2.807,10.408V75.084z M348.264,74.536c0-2.648-0.354-4.537-1.059-5.667
		c-0.706-1.128-1.79-1.693-3.253-1.693c-1.938,0-3.282,0.739-4.03,2.216v10.95c0.731,1.461,2.092,2.19,4.082,2.19
		c2.023,0,3.307-0.984,3.852-2.954C348.127,78.61,348.264,76.93,348.264,74.536z"/>
	<path fill="#F9BA2E" d="M370.003,88.654h-8.621v-39.18h8.621V88.654z"/>
	<path fill="#F9BA2E" d="M388.911,89.164c-4.234,0-7.662-1.263-10.28-3.788c-2.619-2.524-3.929-5.812-3.929-9.858v-0.715
		c0-2.822,0.523-5.313,1.569-7.473c1.046-2.159,2.571-3.83,4.578-5.013c2.007-1.182,4.388-1.772,7.143-1.772
		c3.878,0,6.938,1.203,9.184,3.609c2.244,2.406,3.367,5.761,3.367,10.063v3.341h-17.091c0.306,1.548,0.978,2.764,2.015,3.648
		c1.037,0.884,2.381,1.326,4.03,1.326c2.721,0,4.847-0.952,6.378-2.857l3.928,4.643c-1.071,1.479-2.589,2.658-4.553,3.533
		C393.285,88.727,391.172,89.164,388.911,89.164z M387.941,67.176c-2.517,0-4.014,1.667-4.489,5h8.673v-0.663
		c0.034-1.377-0.315-2.444-1.046-3.201C390.348,67.555,389.302,67.176,387.941,67.176z"/>
</g>
</svg>
