<?xml version="1.0" encoding="UTF-8" standalone="no"?>
<svg version="1.1" id="Layer_1" xmlns="http://www.w3.org/2000/svg" xmlns:xlink="http://www.w3.org/1999/xlink" x="0px" y="0px"
	 width="1000px" height="221.52px" viewBox="0 0 1000 221.52" enable-background="new 0 0 1000 221.52" xml:space="preserve">
<g>
	<polygon fill="#E02826" points="977.914,0 923.415,116.857 902.814,72.521 880.555,72.521 914.376,145.041 932.362,145.041 
		1000,0.019 1000,0 	"/>
	<path d="M743.582,217h44.021v-80.424c0-18.34,10.718-31.318,26.515-31.318c15.242,0,23.146,10.718,23.146,25.959V217h44.027
		v-94.254c0-31.881-19.188-54.459-50.23-54.459c-19.761,0-33.58,8.472-44.018,23.991h-0.85V72.516h-42.613L743.582,217L743.582,217z
		 M657.229,68.563c-46,0-76.753,33.022-76.753,76.48c0,43.174,30.753,76.476,76.753,76.476c45.991,0,76.755-33.302,76.755-76.476
		C733.983,101.586,703.221,68.563,657.229,68.563 M656.945,189.068c-20.886,0-31.883-17.5-31.883-44.023
		c0-26.809,10.997-44.031,31.883-44.031c20.885,0,32.461,17.223,32.461,44.031C689.406,171.568,677.83,189.068,656.945,189.068
		 M455.183,217h123.602v-34.713h-69.991v-0.84l66.89-75.059V72.516h-120.5v34.711h67.723v0.849l-67.723,75.632V217L455.183,217z
		 M398.742,217h44.3V72.516h-44.3V217z M296.02,217h44.022v-66.311c0-30.189,18.056-43.461,45.706-39.793h0.849v-38.09
		c-2.257-0.85-4.794-1.132-9.026-1.132c-17.21,0-28.781,7.903-38.659,24.831h-0.85V72.516H296.02V217z M215.029,189.343
		c-19.47,0-31.318-12.696-33.58-32.168H285.58c0.28-31.039-7.898-55.87-25.12-71.39c-12.131-11.289-28.219-17.499-48.533-17.499
		c-43.458,0-73.657,33.019-73.657,76.189c0,43.457,28.791,76.758,76.477,76.758c18.063,0,32.451-4.799,44.305-12.984
		c12.698-8.74,21.727-21.444,24.271-34.139h-42.335C236.76,183.708,228.008,189.343,215.029,189.343 M212.771,99.898
		c15.519,0,26.246,11.565,27.937,28.496h-58.98C185.117,111.177,194.428,99.898,212.771,99.898 M50.23,217h46.28l50.23-144.482
		h-44.302l-28.217,92.841h-0.574L45.431,72.516H0L50.23,217z M398.742,21.153h44.3v39.223h-44.3V21.153z"/>
</g>
</svg>