<?xml version="1.0" encoding="UTF-8" standalone="no"?>
<!-- Generator: Adobe Illustrator 12.0.0, SVG Export Plug-In . SVG Version: 6.00 Build 51448)  -->

<svg
   xmlns:dc="http://purl.org/dc/elements/1.1/"
   xmlns:cc="http://creativecommons.org/ns#"
   xmlns:rdf="http://www.w3.org/1999/02/22-rdf-syntax-ns#"
   xmlns:svg="http://www.w3.org/2000/svg"
   xmlns="http://www.w3.org/2000/svg"
   xmlns:sodipodi="http://sodipodi.sourceforge.net/DTD/sodipodi-0.dtd"
   xmlns:inkscape="http://www.inkscape.org/namespaces/inkscape"
   version="1.1"
   id="svg2008"
   sodipodi:version="0.32"
   inkscape:version="0.91 r13725"
   sodipodi:docname="T-Mobile_logo.html"
   width="480.72101"
   height="82.570999"
   viewBox="44 334 480.721 82.570999"
   overflow="visible"
   enable-background="new 44 334 523 123"
   xml:space="preserve"
   style="overflow:visible"><metadata
     id="metadata27"><rdf:RDF><cc:Work
         rdf:about=""><dc:format>image/svg+xml</dc:format><dc:type
           rdf:resource="http://purl.org/dc/dcmitype/StillImage" /><dc:title></dc:title></cc:Work></rdf:RDF></metadata><defs
     id="defs25" /><sodipodi:namedview
     units="mm"
     inkscape:cy="95.975315"
     borderopacity="1.0"
     pagecolor="#ffffff"
     inkscape:zoom="1.4"
     inkscape:cx="209.36106"
     id="base"
     inkscape:window-x="0"
     inkscape:window-y="1"
     inkscape:current-layer="g4"
     inkscape:window-width="1680"
     inkscape:window-height="931"
     inkscape:pageshadow="2"
     inkscape:pageopacity="0.0"
     bordercolor="#666666"
     width="186.67mm"
     height="27.6mm"
     inkscape:document-units="px"
     showgrid="false"
     inkscape:window-maximized="1" /><g
     id="g4"
     transform="translate(-15.226,-19.964997)"><path
       id="path18"
       d="m 59.226,390.669 16.107,0 0,16.437 -16.107,0 0,-16.437 z"
       inkscape:connector-curvature="0"
       style="fill:#999b9e" /><path
       id="path20"
       d="m 97.909,357.86 1.911,0 c 12.343,0 18.096,6.603 20.5,24.212 l 3.822,-0.169 -0.51,-27.938 -62.808,0 -0.619,27.938 3.678,0.169 c 0.637,-6.603 1.401,-10.159 3.059,-13.715 2.931,-6.604 9.048,-10.497 16.566,-10.497 l 2.676,0 0,60.784 c 0,6.434 -0.382,8.466 -1.91,9.99 -1.275,1.185 -3.824,1.693 -6.756,1.693 l -2.931,0 0,4.063 34.919,0 0,-4.063 -2.949,0 c -2.913,0 -5.48,-0.509 -6.736,-1.693 -1.529,-1.524 -1.911,-3.557 -1.911,-9.99 l 0,-60.784"
       inkscape:connector-curvature="0"
       style="fill:#ed008c" /><path
       id="path22"
       d="m 108.5,390.669 16.107,0 0,16.437 -16.107,0 0,-16.437 z"
       inkscape:connector-curvature="0"
       style="fill:#999b9e" /><path
       id="path24"
       d="m 156.061,390.669 16.125,0 0,16.437 -16.125,0 0,-16.437 z"
       inkscape:connector-curvature="0"
       style="fill:#999b9e" /><path
       id="path26"
       d="m 204.39,390.669 16.108,0 0,16.437 -16.108,0 0,-16.437 z"
       inkscape:connector-curvature="0"
       style="fill:#999b9e" /><path
       id="path28"
       d="m 264.053,434.391 20.35,-71.006 0,55.721 c 0,6.081 -0.346,8.218 -1.726,9.697 -1.036,1.15 -3.437,1.644 -6.099,1.644 l -1.035,0 0,3.944 28.765,0 0,-3.944 -1.497,0 c -2.646,0 -5.062,-0.493 -6.097,-1.644 -1.382,-1.479 -1.727,-3.616 -1.727,-9.697 l 0,-47.502 c 0,-6.082 0.345,-8.383 1.727,-9.862 1.15,-0.986 3.451,-1.644 6.097,-1.644 l 1.497,0 0,-3.781 -22.321,0 -16.799,57.364 -16.437,-57.364 -22.206,0 0,3.781 2.07,0 c 6.099,0 7.249,1.315 7.249,9.205 l 0,45.2 c 0,7.232 -0.345,10.191 -1.381,12.328 -1.15,2.137 -3.583,3.616 -6.098,3.616 l -1.841,0 0,3.944 23.701,0 0,-3.944 -1.495,0 c -2.991,0 -5.408,-1.151 -6.805,-3.452 -1.364,-2.301 -1.709,-4.438 -1.709,-12.492 l 0,-51.117 20.233,71.006 3.584,0"
       inkscape:connector-curvature="0"
       style="fill:#999b9e" /><path
       id="path30"
       d="m 329.044,378.835 c -14.267,0 -23.586,11.177 -23.586,28.765 0,16.93 9.319,28.436 23.226,28.436 14.035,0 23.355,-11.506 23.355,-28.6 0,-16.931 -9.32,-28.601 -22.995,-28.601 m -0.46,3.78 c 4.126,0 7.692,2.63 9.648,7.068 1.841,4.109 2.646,9.698 2.646,17.752 0,16.6 -4.027,24.818 -12.195,24.818 -8.153,0 -12.082,-8.219 -12.082,-24.983 0,-7.89 0.821,-13.478 2.662,-17.587 1.826,-4.273 5.524,-7.068 9.321,-7.068"
       inkscape:connector-curvature="0"
       style="fill:#999b9e" /><path
       id="path32"
       d="m 371.155,355.495 -16.339,0.822 0,3.616 0.789,0 c 4.833,0 5.885,1.644 5.885,9.369 l 0,53.419 c 0,6.903 -0.23,8.712 -1.15,11.67 l 3.797,0 c 2.859,-4.767 3.566,-5.588 4.717,-5.588 0.559,0 1.117,0.164 1.94,0.986 5.653,4.602 8.069,5.588 13.247,5.588 12.409,0 21.384,-11.999 21.384,-29.093 0,-16.108 -8.301,-26.956 -20.71,-26.956 -6.443,0 -11.144,3.123 -13.56,8.711 l 0,-32.544 m 11.933,27.942 c 7.381,0 11.177,7.89 11.177,23.34 0,16.272 -3.912,24.655 -11.391,24.655 -8.284,0 -12.641,-8.548 -12.641,-24.162 0,-7.89 1.037,-13.313 3.453,-17.423 2.169,-3.944 5.868,-6.41 9.402,-6.41"
       inkscape:connector-curvature="0"
       style="fill:#999b9e" /><path
       id="path34"
       d="m 426.711,379.657 -16.782,0.986 0,3.616 1.266,0 c 4.815,0 5.852,1.644 5.852,9.205 l 0,27.778 c 0,7.562 -1.036,9.37 -5.852,9.37 l -1.825,0 0,3.779 25.051,0 0,-3.779 -1.809,0 c -4.849,0 -5.9,-1.645 -5.9,-9.37 l 0,-41.585 m -5.508,-23.998 c -3.566,0 -6.442,2.794 -6.442,6.575 0,3.452 2.876,6.41 6.328,6.41 3.566,0 6.328,-2.794 6.328,-6.41 0,-3.616 -2.762,-6.575 -6.214,-6.575"
       inkscape:connector-curvature="0"
       style="fill:#999b9e" /><path
       id="path36"
       d="m 455.819,355.495 -16.782,0.822 0,3.616 1.251,0 c 4.832,0 5.867,1.644 5.867,9.369 l 0,51.939 c 0,7.726 -1.035,9.37 -5.867,9.37 l -1.825,0 0,3.779 25.065,0 0,-3.779 -1.841,0 c -4.849,0 -5.868,-1.645 -5.868,-9.37 l 0,-65.746"
       inkscape:connector-curvature="0"
       style="fill:#999b9e" /><path
       id="path38"
       d="m 509.306,407.106 c -0.56,-17.423 -8.844,-28.271 -21.368,-28.271 -12.098,0 -20.826,11.834 -20.826,28.271 0,17.587 8.613,28.929 21.96,28.929 8.629,0 14.612,-4.603 19.56,-14.794 l -3.451,-1.808 c -4.027,8.547 -8.054,11.999 -14.268,11.999 -9.089,0 -12.984,-7.231 -13.101,-24.326 l 31.494,0 m -31.378,-4.11 c 0.099,-12.327 4.108,-20.052 10.568,-20.052 6.443,0 10.239,7.561 10.125,20.052 l -20.693,0"
       inkscape:connector-curvature="0"
       style="fill:#999b9e" /><path
       id="path40"
       d="m 523.84,390.669 16.107,0 0,16.437 -16.107,0 0,-16.437 z"
       inkscape:connector-curvature="0"
       style="fill:#999b9e" /></g></svg>